<svg width="120" height="120" viewBox="0 0 120 120" fill="none" xmlns="http://www.w3.org/2000/svg">
<g clip-path="url(#clip0)">
<path d="M104.033 63.9801C105.026 50.0716 92.2207 39.3503 78.7774 42.6135C76.0521 30.3339 65.0986 21.1509 51.9984 21.1509C36.4732 21.1509 23.9541 34.0518 24.5913 49.7174C24.5829 49.7174 24.5747 49.717 24.5663 49.717C10.9985 49.717 0 60.7155 0 74.283C0 87.5313 10.4878 98.3282 23.6135 98.8289V98.849H102.531C112.179 98.849 120 91.0279 120 81.3801C120 72.239 112.977 64.7423 104.033 63.9801Z" fill="#D8ECFE"/>
<path d="M104.033 63.9801C105.026 50.0713 92.2206 39.3503 78.7773 42.6135C76.052 30.3339 65.0985 21.1509 51.9984 21.1509C47.6634 21.1509 43.5632 22.1575 39.918 23.9484C40.832 23.8563 41.759 23.8082 42.6972 23.8082C55.7973 23.8082 66.7509 32.9913 69.4762 45.2709C82.9195 42.0074 95.7252 52.7287 94.732 66.6374C103.676 67.3999 110.699 74.8964 110.699 84.0377C110.699 90.2838 107.418 95.7609 102.489 98.849H102.531C112.179 98.849 120 91.0279 120 81.3801C120 72.239 112.977 64.7423 104.033 63.9801Z" fill="#C4E2FF"/>
</g>
<defs>
<clipPath id="clip0">
<rect width="120" height="120" fill="white"/>
</clipPath>
</defs>
</svg>
